<mxfile host="65bd71144e">
    <diagram id="vfPjIXV7-_8xSIX4Z5ZD" name="Page-1">
        <mxGraphModel dx="2092" dy="1951" grid="1" gridSize="10" guides="1" tooltips="1" connect="1" arrows="1" fold="1" page="1" pageScale="1" pageWidth="850" pageHeight="1100" math="0" shadow="0">
            <root>
                <mxCell id="0"/>
                <mxCell id="1" parent="0"/>
                <mxCell id="27" value="Treasury" style="swimlane;whiteSpace=wrap;html=1;" vertex="1" parent="1">
                    <mxGeometry x="-80" y="-150" width="130" height="90" as="geometry"/>
                </mxCell>
                <mxCell id="29" value="&lt;div style=&quot;color: rgb(204, 204, 204); background-color: rgb(31, 31, 31); font-family: &amp;quot;Droid Sans Mono&amp;quot;, &amp;quot;monospace&amp;quot;, monospace; font-size: 14px; line-height: 19px;&quot;&gt;&lt;div&gt;id: &lt;span style=&quot;color: #4ec9b0;&quot;&gt;UID&lt;/span&gt;,&lt;/div&gt;&lt;div&gt;        balance: &lt;span style=&quot;color: #4ec9b0;&quot;&gt;u64&lt;/span&gt;,&lt;/div&gt;&lt;/div&gt;" style="text;html=1;align=left;verticalAlign=middle;resizable=0;points=[];autosize=1;strokeColor=none;fillColor=none;" vertex="1" parent="27">
                    <mxGeometry y="30" width="130" height="50" as="geometry"/>
                </mxCell>
                <mxCell id="30" value="Business" style="swimlane;whiteSpace=wrap;html=1;" vertex="1" parent="1">
                    <mxGeometry x="110" y="-200" width="260" height="110" as="geometry">
                        <mxRectangle x="280" y="315" width="90" height="30" as="alternateBounds"/>
                    </mxGeometry>
                </mxCell>
                <mxCell id="31" value="&lt;div style=&quot;color: rgb(204, 204, 204); background-color: rgb(31, 31, 31); font-family: &amp;quot;Droid Sans Mono&amp;quot;, &amp;quot;monospace&amp;quot;, monospace; font-size: 14px; line-height: 19px;&quot;&gt;&lt;div&gt;id: &lt;span style=&quot;color: #4ec9b0;&quot;&gt;UID&lt;/span&gt;,&lt;/div&gt;&lt;div&gt;        employees: &lt;span style=&quot;color: #4ec9b0;&quot;&gt;vector&lt;/span&gt;&amp;lt;&lt;span style=&quot;color: #4ec9b0;&quot;&gt;Employee&lt;/span&gt;&amp;gt;,&lt;/div&gt;&lt;div&gt;        treasury: &lt;span style=&quot;color: #4ec9b0;&quot;&gt;Treasury&lt;/span&gt;,&lt;/div&gt;&lt;/div&gt;" style="text;html=1;align=left;verticalAlign=middle;resizable=0;points=[];autosize=1;strokeColor=none;fillColor=none;" vertex="1" parent="30">
                    <mxGeometry y="25" width="260" height="70" as="geometry"/>
                </mxCell>
                <mxCell id="32" value="Employee" style="swimlane;whiteSpace=wrap;html=1;" vertex="1" parent="1">
                    <mxGeometry x="430" y="-200" width="310" height="200" as="geometry"/>
                </mxCell>
                <mxCell id="33" value="&lt;div style=&quot;color: rgb(204, 204, 204); background-color: rgb(31, 31, 31); font-family: &amp;quot;Droid Sans Mono&amp;quot;, &amp;quot;monospace&amp;quot;, monospace; font-size: 14px; line-height: 19px;&quot;&gt;&lt;div&gt;id: &lt;span style=&quot;color: #4ec9b0;&quot;&gt;UID&lt;/span&gt;,&lt;/div&gt;&lt;div&gt;        role: &lt;span style=&quot;color: #4ec9b0;&quot;&gt;String&lt;/span&gt;,&lt;/div&gt;&lt;div&gt;        pay_stubs: &lt;span style=&quot;color: #4ec9b0;&quot;&gt;vector&lt;/span&gt;&amp;lt;&lt;span style=&quot;color: #4ec9b0;&quot;&gt;PayStub&lt;/span&gt;&amp;gt;,&lt;/div&gt;&lt;div&gt;        payments: &lt;span style=&quot;color: #4ec9b0;&quot;&gt;vector&lt;/span&gt;&amp;lt;&lt;span style=&quot;color: #4ec9b0;&quot;&gt;Payment&lt;/span&gt;&amp;gt;,&lt;/div&gt;&lt;div&gt;        entitlements: &lt;span style=&quot;color: #4ec9b0;&quot;&gt;vector&lt;/span&gt;&amp;lt;&lt;span style=&quot;color: #4ec9b0;&quot;&gt;Entitlement&lt;/span&gt;&amp;gt;,&lt;/div&gt;&lt;div&gt;        wallet: &lt;span style=&quot;color: #4ec9b0;&quot;&gt;address&lt;/span&gt;,&lt;/div&gt;&lt;div&gt;        start_date: &lt;span style=&quot;color: #4ec9b0;&quot;&gt;String&lt;/span&gt;,&lt;/div&gt;&lt;div&gt;        termination_date: &lt;span style=&quot;color: #4ec9b0;&quot;&gt;String&lt;/span&gt;,&lt;/div&gt;&lt;/div&gt;" style="text;html=1;align=left;verticalAlign=middle;resizable=0;points=[];autosize=1;strokeColor=none;fillColor=none;" vertex="1" parent="32">
                    <mxGeometry y="25" width="310" height="170" as="geometry"/>
                </mxCell>
                <mxCell id="34" value="PayStub" style="swimlane;whiteSpace=wrap;html=1;" vertex="1" parent="1">
                    <mxGeometry x="490" y="40" width="250" height="140" as="geometry"/>
                </mxCell>
                <mxCell id="35" value="&lt;div style=&quot;color: rgb(204, 204, 204); background-color: rgb(31, 31, 31); font-family: &amp;quot;Droid Sans Mono&amp;quot;, &amp;quot;monospace&amp;quot;, monospace; font-size: 14px; line-height: 19px;&quot;&gt;&lt;div&gt;id: &lt;span style=&quot;color: #4ec9b0;&quot;&gt;UID&lt;/span&gt;,&lt;/div&gt;&lt;div&gt;        employer: &lt;span style=&quot;color: #4ec9b0;&quot;&gt;Business&lt;/span&gt;,&lt;/div&gt;&lt;div&gt;        employee: &lt;span style=&quot;color: #4ec9b0;&quot;&gt;Employee&lt;/span&gt;,&lt;/div&gt;&lt;div&gt;        date: &lt;span style=&quot;color: #4ec9b0;&quot;&gt;String&lt;/span&gt;,&lt;/div&gt;&lt;div&gt;        compensation: &lt;span style=&quot;color: #4ec9b0;&quot;&gt;Compensation&lt;/span&gt;,&lt;/div&gt;&lt;/div&gt;" style="text;html=1;align=left;verticalAlign=middle;resizable=0;points=[];autosize=1;strokeColor=none;fillColor=none;" vertex="1" parent="34">
                    <mxGeometry y="30" width="250" height="110" as="geometry"/>
                </mxCell>
                <mxCell id="36" value="Payment" style="swimlane;whiteSpace=wrap;html=1;" vertex="1" parent="1">
                    <mxGeometry x="860" y="10" width="190" height="130" as="geometry"/>
                </mxCell>
                <mxCell id="37" value="&lt;div style=&quot;color: rgb(204, 204, 204); background-color: rgb(31, 31, 31); font-family: &amp;quot;Droid Sans Mono&amp;quot;, &amp;quot;monospace&amp;quot;, monospace; font-size: 14px; line-height: 19px;&quot;&gt;&lt;div style=&quot;line-height: 19px;&quot;&gt;&lt;div&gt;id: &lt;span style=&quot;color: #4ec9b0;&quot;&gt;UID&lt;/span&gt;,&lt;/div&gt;&lt;div&gt;        date: &lt;span style=&quot;color: #4ec9b0;&quot;&gt;String&lt;/span&gt;,&lt;/div&gt;&lt;div&gt;        to: &lt;span style=&quot;color: #4ec9b0;&quot;&gt;address&lt;/span&gt;,&lt;/div&gt;&lt;div&gt;        amount: &lt;span style=&quot;color: #4ec9b0;&quot;&gt;u64&lt;/span&gt;,&lt;/div&gt;&lt;div&gt;        pay_stub: &amp;amp;&lt;span style=&quot;color: #4ec9b0;&quot;&gt;PayStub&lt;/span&gt;,&lt;/div&gt;&lt;/div&gt;&lt;/div&gt;" style="text;html=1;align=left;verticalAlign=middle;resizable=0;points=[];autosize=1;strokeColor=none;fillColor=none;" vertex="1" parent="36">
                    <mxGeometry x="10" y="20" width="180" height="110" as="geometry"/>
                </mxCell>
                <mxCell id="38" value="Entitlement" style="swimlane;whiteSpace=wrap;html=1;" vertex="1" parent="1">
                    <mxGeometry x="850" y="-185" width="230" height="80" as="geometry"/>
                </mxCell>
                <mxCell id="39" value="&lt;div style=&quot;color: rgb(204, 204, 204); background-color: rgb(31, 31, 31); font-family: &amp;quot;Droid Sans Mono&amp;quot;, &amp;quot;monospace&amp;quot;, monospace; font-size: 14px; line-height: 19px;&quot;&gt;&lt;div&gt;id: &lt;span style=&quot;color: #4ec9b0;&quot;&gt;UID&lt;/span&gt;,&lt;/div&gt;&lt;div&gt;        entitlement_name: &lt;span style=&quot;color: #4ec9b0;&quot;&gt;String&lt;/span&gt;,&lt;/div&gt;&lt;/div&gt;" style="text;html=1;align=left;verticalAlign=middle;resizable=0;points=[];autosize=1;strokeColor=none;fillColor=none;" vertex="1" parent="38">
                    <mxGeometry y="30" width="230" height="50" as="geometry"/>
                </mxCell>
                <mxCell id="40" value="" style="edgeStyle=entityRelationEdgeStyle;fontSize=12;html=1;endArrow=ERzeroToMany;startArrow=ERmandOne;entryX=0;entryY=0.25;entryDx=0;entryDy=0;exitX=0.995;exitY=-0.011;exitDx=0;exitDy=0;exitPerimeter=0;" edge="1" parent="1" source="33" target="38">
                    <mxGeometry width="100" height="100" relative="1" as="geometry">
                        <mxPoint x="480" y="230" as="sourcePoint"/>
                        <mxPoint x="580" y="130" as="targetPoint"/>
                    </mxGeometry>
                </mxCell>
                <mxCell id="46" value="owns" style="edgeLabel;html=1;align=center;verticalAlign=middle;resizable=0;points=[];" vertex="1" connectable="0" parent="40">
                    <mxGeometry x="-0.4404" y="2" relative="1" as="geometry">
                        <mxPoint as="offset"/>
                    </mxGeometry>
                </mxCell>
                <mxCell id="41" value="" style="edgeStyle=entityRelationEdgeStyle;fontSize=12;html=1;endArrow=ERzeroToMany;startArrow=ERmandOne;entryX=0;entryY=0.25;entryDx=0;entryDy=0;" edge="1" parent="1" source="33" target="36">
                    <mxGeometry width="100" height="100" relative="1" as="geometry">
                        <mxPoint x="480" y="230" as="sourcePoint"/>
                        <mxPoint x="580" y="130" as="targetPoint"/>
                    </mxGeometry>
                </mxCell>
                <mxCell id="45" value="owns" style="edgeLabel;html=1;align=center;verticalAlign=middle;resizable=0;points=[];" vertex="1" connectable="0" parent="41">
                    <mxGeometry x="-0.37" relative="1" as="geometry">
                        <mxPoint as="offset"/>
                    </mxGeometry>
                </mxCell>
                <mxCell id="42" value="" style="edgeStyle=entityRelationEdgeStyle;fontSize=12;html=1;endArrow=ERone;endFill=1;exitX=1;exitY=0.25;exitDx=0;exitDy=0;entryX=0;entryY=0.25;entryDx=0;entryDy=0;" edge="1" parent="1" source="27" target="30">
                    <mxGeometry width="100" height="100" relative="1" as="geometry">
                        <mxPoint x="480" y="230" as="sourcePoint"/>
                        <mxPoint x="580" y="130" as="targetPoint"/>
                    </mxGeometry>
                </mxCell>
                <mxCell id="49" value="owns" style="edgeLabel;html=1;align=center;verticalAlign=middle;resizable=0;points=[];" vertex="1" connectable="0" parent="42">
                    <mxGeometry x="-0.0211" y="2" relative="1" as="geometry">
                        <mxPoint y="-1" as="offset"/>
                    </mxGeometry>
                </mxCell>
                <mxCell id="43" value="" style="edgeStyle=entityRelationEdgeStyle;fontSize=12;html=1;endArrow=ERzeroToMany;startArrow=ERmandOne;exitX=1;exitY=0.25;exitDx=0;exitDy=0;" edge="1" parent="1" source="30" target="33">
                    <mxGeometry width="100" height="100" relative="1" as="geometry">
                        <mxPoint x="480" y="230" as="sourcePoint"/>
                        <mxPoint x="580" y="130" as="targetPoint"/>
                    </mxGeometry>
                </mxCell>
                <mxCell id="47" value="owns" style="edgeLabel;html=1;align=center;verticalAlign=middle;resizable=0;points=[];" vertex="1" connectable="0" parent="43">
                    <mxGeometry x="-0.3928" y="-3" relative="1" as="geometry">
                        <mxPoint as="offset"/>
                    </mxGeometry>
                </mxCell>
                <mxCell id="44" value="" style="edgeStyle=entityRelationEdgeStyle;fontSize=12;html=1;endArrow=ERmandOne;startArrow=ERmandOne;entryX=0;entryY=0.75;entryDx=0;entryDy=0;exitX=1.004;exitY=0.617;exitDx=0;exitDy=0;exitPerimeter=0;" edge="1" parent="1" source="35" target="36">
                    <mxGeometry width="100" height="100" relative="1" as="geometry">
                        <mxPoint x="480" y="230" as="sourcePoint"/>
                        <mxPoint x="580" y="130" as="targetPoint"/>
                    </mxGeometry>
                </mxCell>
                <mxCell id="48" value="references" style="edgeLabel;html=1;align=center;verticalAlign=middle;resizable=0;points=[];" vertex="1" connectable="0" parent="44">
                    <mxGeometry x="-0.4044" y="1" relative="1" as="geometry">
                        <mxPoint x="13" y="3" as="offset"/>
                    </mxGeometry>
                </mxCell>
                <mxCell id="50" value="" style="edgeStyle=entityRelationEdgeStyle;fontSize=12;html=1;endArrow=ERzeroToMany;startArrow=ERmandOne;exitX=0.999;exitY=0.902;exitDx=0;exitDy=0;exitPerimeter=0;" edge="1" parent="1" source="33" target="34">
                    <mxGeometry width="100" height="100" relative="1" as="geometry">
                        <mxPoint x="750" y="-30" as="sourcePoint"/>
                        <mxPoint x="670" y="70" as="targetPoint"/>
                    </mxGeometry>
                </mxCell>
                <mxCell id="51" value="owns" style="edgeLabel;html=1;align=center;verticalAlign=middle;resizable=0;points=[];" vertex="1" connectable="0" parent="50">
                    <mxGeometry x="-0.0829" y="-3" relative="1" as="geometry">
                        <mxPoint as="offset"/>
                    </mxGeometry>
                </mxCell>
            </root>
        </mxGraphModel>
    </diagram>
</mxfile>